<svg width="1254" height="160" viewBox="0 0 1254 160" fill="none" xmlns="http://www.w3.org/2000/svg">
<mask id="mask0_1059_21470" style="mask-type:alpha" maskUnits="userSpaceOnUse" x="0" y="0" width="1254" height="160">
<path d="M0 10.9881C0 4.91953 4.91953 0 10.9881 0H1243.01C1249.08 0 1254 4.91953 1254 10.9881V149.012C1254 155.08 1249.08 160 1243.01 160H10.988C4.91945 160 0 155.08 0 149.012V10.9881Z" fill="url(#paint0_linear_1059_21470)"/>
</mask>
<g mask="url(#mask0_1059_21470)">
<g opacity="0.4">
<ellipse opacity="0.7" rx="1.26999" ry="1.3093" transform="matrix(-0.267337 -0.963603 0.968108 -0.250535 38.428 1.55273)" fill="url(#paint1_linear_1059_21470)"/>
<ellipse opacity="0.7" rx="1.26999" ry="1.3093" transform="matrix(-0.267337 -0.963603 0.968108 -0.250535 27.4402 67.4798)" fill="url(#paint2_linear_1059_21470)"/>
<ellipse opacity="0.91" rx="1.51693" ry="1.46524" transform="matrix(0.996449 -0.0841975 0.0902163 0.995922 75.2101 21.1546)" fill="url(#paint3_linear_1059_21470)"/>
<ellipse opacity="0.79" rx="1.96416" ry="1.99023" transform="matrix(0.572574 0.819853 -0.837889 0.545841 186.097 30.1637)" fill="url(#paint4_linear_1059_21470)"/>
<ellipse opacity="0.84" rx="1.82223" ry="1.86392" transform="matrix(0.43479 0.900532 -0.911797 0.410641 277.501 23.619)" fill="url(#paint5_linear_1059_21470)"/>
<ellipse opacity="0.98" rx="1.26702" ry="1.31217" transform="matrix(-0.0541833 -0.998531 0.998721 -0.0505513 345.288 55.2595)" fill="url(#paint6_linear_1059_21470)"/>
<ellipse opacity="0.76" rx="1.04696" ry="1.0644" transform="matrix(0.528246 0.849091 -0.864912 0.501924 265.688 124.345)" fill="url(#paint7_linear_1059_21470)"/>
<ellipse opacity="0.75" rx="1.05245" ry="1.02528" transform="matrix(0.937636 -0.347619 0.369349 0.929291 289.812 61.6027)" fill="url(#paint8_linear_1059_21470)"/>
<ellipse opacity="0.75" rx="1.05245" ry="1.02528" transform="matrix(0.937636 -0.347619 0.369349 0.929291 220.382 61.753)" fill="url(#paint9_linear_1059_21470)"/>
<ellipse opacity="0.89" rx="1.08654" ry="1.12509" transform="matrix(0.0722132 0.997389 -0.997727 0.0673826 391.329 34.9161)" fill="url(#paint10_linear_1059_21470)"/>
</g>
<g opacity="0.4">
<ellipse opacity="0.91" rx="1.96881" ry="1.98564" transform="matrix(-0.629083 -0.777338 0.798364 -0.602175 743.863 77.0067)" fill="url(#paint11_linear_1059_21470)"/>
<ellipse opacity="0.73" rx="1.54524" ry="1.50413" transform="matrix(0.943408 -0.331633 0.352644 0.935757 772.396 34.8844)" fill="url(#paint12_linear_1059_21470)"/>
<ellipse opacity="0.7" rx="1.26999" ry="1.3093" transform="matrix(-0.267337 -0.963603 0.968108 -0.250535 900.234 1.55371)" fill="url(#paint13_linear_1059_21470)"/>
<ellipse opacity="0.7" rx="1.26999" ry="1.3093" transform="matrix(-0.267337 -0.963603 0.968108 -0.250535 889.246 67.4808)" fill="url(#paint14_linear_1059_21470)"/>
<ellipse opacity="0.91" rx="1.51693" ry="1.46524" transform="matrix(0.996449 -0.0841975 0.0902163 0.995922 937.016 21.1556)" fill="url(#paint15_linear_1059_21470)"/>
<ellipse opacity="0.79" rx="1.96416" ry="1.99023" transform="matrix(0.572574 0.819853 -0.837889 0.545841 1047.9 30.1647)" fill="url(#paint16_linear_1059_21470)"/>
<ellipse opacity="0.84" rx="1.82223" ry="1.86392" transform="matrix(0.43479 0.900532 -0.911797 0.410641 1139.31 23.6199)" fill="url(#paint17_linear_1059_21470)"/>
<ellipse opacity="0.98" rx="1.26702" ry="1.31217" transform="matrix(-0.0541833 -0.998531 0.998721 -0.0505513 1207.09 55.2605)" fill="url(#paint18_linear_1059_21470)"/>
<ellipse opacity="0.76" rx="1.04696" ry="1.0644" transform="matrix(0.528246 0.849091 -0.864912 0.501924 1127.49 124.346)" fill="url(#paint19_linear_1059_21470)"/>
<ellipse opacity="0.75" rx="1.05245" ry="1.02528" transform="matrix(0.937636 -0.347619 0.369349 0.929291 1151.62 61.6037)" fill="url(#paint20_linear_1059_21470)"/>
<ellipse opacity="0.75" rx="1.05245" ry="1.02528" transform="matrix(0.937636 -0.347619 0.369349 0.929291 1082.19 61.754)" fill="url(#paint21_linear_1059_21470)"/>
<ellipse opacity="0.89" rx="1.08654" ry="1.12509" transform="matrix(0.0722132 0.997389 -0.997727 0.0673826 1253.13 34.9171)" fill="url(#paint22_linear_1059_21470)"/>
</g>
<g opacity="0.4">
<ellipse opacity="0.91" rx="1.96881" ry="1.98564" transform="matrix(-0.629083 -0.777338 0.798364 -0.602175 316.987 77.0067)" fill="url(#paint23_linear_1059_21470)"/>
<ellipse opacity="0.73" rx="1.54524" ry="1.50413" transform="matrix(0.943408 -0.331633 0.352644 0.935757 345.521 34.8844)" fill="url(#paint24_linear_1059_21470)"/>
<ellipse opacity="0.7" rx="1.26999" ry="1.3093" transform="matrix(-0.267337 -0.963603 0.968108 -0.250535 473.358 1.55371)" fill="url(#paint25_linear_1059_21470)"/>
<ellipse opacity="0.7" rx="1.26999" ry="1.3093" transform="matrix(-0.267337 -0.963603 0.968108 -0.250535 462.37 67.4808)" fill="url(#paint26_linear_1059_21470)"/>
<ellipse opacity="0.91" rx="1.51693" ry="1.46524" transform="matrix(0.996449 -0.0841975 0.0902163 0.995922 510.14 21.1556)" fill="url(#paint27_linear_1059_21470)"/>
<ellipse opacity="0.79" rx="1.96416" ry="1.99023" transform="matrix(0.572574 0.819853 -0.837889 0.545841 621.027 30.1647)" fill="url(#paint28_linear_1059_21470)"/>
<ellipse opacity="0.84" rx="1.82223" ry="1.86392" transform="matrix(0.43479 0.900532 -0.911797 0.410641 712.431 23.6199)" fill="url(#paint29_linear_1059_21470)"/>
<ellipse opacity="0.98" rx="1.26702" ry="1.31217" transform="matrix(-0.0541833 -0.998531 0.998721 -0.0505513 780.218 55.2605)" fill="url(#paint30_linear_1059_21470)"/>
<ellipse opacity="0.76" rx="1.04696" ry="1.0644" transform="matrix(0.528246 0.849091 -0.864912 0.501924 700.619 124.346)" fill="url(#paint31_linear_1059_21470)"/>
<ellipse opacity="0.75" rx="1.05245" ry="1.02528" transform="matrix(0.937636 -0.347619 0.369349 0.929291 724.742 61.6037)" fill="url(#paint32_linear_1059_21470)"/>
<ellipse opacity="0.75" rx="1.05245" ry="1.02528" transform="matrix(0.937636 -0.347619 0.369349 0.929291 655.312 61.754)" fill="url(#paint33_linear_1059_21470)"/>
<ellipse opacity="0.89" rx="1.08654" ry="1.12509" transform="matrix(0.0722132 0.997389 -0.997727 0.0673826 826.259 34.9171)" fill="url(#paint34_linear_1059_21470)"/>
</g>
</g>
<defs>
<linearGradient id="paint0_linear_1059_21470" x1="627" y1="0" x2="627" y2="160" gradientUnits="userSpaceOnUse">
<stop stop-color="white"/>
<stop offset="0.537301" stop-color="white" stop-opacity="0.83"/>
<stop offset="0.977864" stop-color="white" stop-opacity="0"/>
</linearGradient>
<linearGradient id="paint1_linear_1059_21470" x1="1.26999" y1="0" x2="1.26999" y2="2.6186" gradientUnits="userSpaceOnUse">
<stop stop-color="white"/>
<stop offset="0.441384" stop-color="white" stop-opacity="0.111856"/>
<stop offset="0.977864" stop-color="white" stop-opacity="0"/>
</linearGradient>
<linearGradient id="paint2_linear_1059_21470" x1="1.26999" y1="0" x2="1.26999" y2="2.6186" gradientUnits="userSpaceOnUse">
<stop stop-color="white"/>
<stop offset="0.441384" stop-color="white" stop-opacity="0.111856"/>
<stop offset="0.977864" stop-color="white" stop-opacity="0"/>
</linearGradient>
<linearGradient id="paint3_linear_1059_21470" x1="1.51693" y1="0" x2="1.51693" y2="2.93048" gradientUnits="userSpaceOnUse">
<stop stop-color="white"/>
<stop offset="0.441384" stop-color="white" stop-opacity="0.111856"/>
<stop offset="0.977864" stop-color="white" stop-opacity="0"/>
</linearGradient>
<linearGradient id="paint4_linear_1059_21470" x1="1.96416" y1="0" x2="1.96416" y2="3.98046" gradientUnits="userSpaceOnUse">
<stop stop-color="white"/>
<stop offset="0.441384" stop-color="white" stop-opacity="0.111856"/>
<stop offset="0.977864" stop-color="white" stop-opacity="0"/>
</linearGradient>
<linearGradient id="paint5_linear_1059_21470" x1="1.82223" y1="0" x2="1.82223" y2="3.72784" gradientUnits="userSpaceOnUse">
<stop stop-color="white"/>
<stop offset="0.441384" stop-color="white" stop-opacity="0.111856"/>
<stop offset="0.977864" stop-color="white" stop-opacity="0"/>
</linearGradient>
<linearGradient id="paint6_linear_1059_21470" x1="1.26702" y1="0" x2="1.26702" y2="2.62434" gradientUnits="userSpaceOnUse">
<stop stop-color="white"/>
<stop offset="0.441384" stop-color="white" stop-opacity="0.111856"/>
<stop offset="0.977864" stop-color="white" stop-opacity="0"/>
</linearGradient>
<linearGradient id="paint7_linear_1059_21470" x1="1.04696" y1="0" x2="1.04696" y2="2.12879" gradientUnits="userSpaceOnUse">
<stop stop-color="white"/>
<stop offset="0.441384" stop-color="white" stop-opacity="0.111856"/>
<stop offset="0.977864" stop-color="white" stop-opacity="0"/>
</linearGradient>
<linearGradient id="paint8_linear_1059_21470" x1="1.05245" y1="0" x2="1.05245" y2="2.05056" gradientUnits="userSpaceOnUse">
<stop stop-color="white"/>
<stop offset="0.441384" stop-color="white" stop-opacity="0.111856"/>
<stop offset="0.977864" stop-color="white" stop-opacity="0"/>
</linearGradient>
<linearGradient id="paint9_linear_1059_21470" x1="1.05245" y1="0" x2="1.05245" y2="2.05056" gradientUnits="userSpaceOnUse">
<stop stop-color="white"/>
<stop offset="0.441384" stop-color="white" stop-opacity="0.111856"/>
<stop offset="0.977864" stop-color="white" stop-opacity="0"/>
</linearGradient>
<linearGradient id="paint10_linear_1059_21470" x1="1.08654" y1="0" x2="1.08654" y2="2.25018" gradientUnits="userSpaceOnUse">
<stop stop-color="white"/>
<stop offset="0.441384" stop-color="white" stop-opacity="0.111856"/>
<stop offset="0.977864" stop-color="white" stop-opacity="0"/>
</linearGradient>
<linearGradient id="paint11_linear_1059_21470" x1="1.96881" y1="0" x2="1.96881" y2="3.97128" gradientUnits="userSpaceOnUse">
<stop stop-color="white"/>
<stop offset="0.441384" stop-color="white" stop-opacity="0.111856"/>
<stop offset="0.977864" stop-color="white" stop-opacity="0"/>
</linearGradient>
<linearGradient id="paint12_linear_1059_21470" x1="1.54524" y1="0" x2="1.54524" y2="3.00826" gradientUnits="userSpaceOnUse">
<stop stop-color="white"/>
<stop offset="0.441384" stop-color="white" stop-opacity="0.111856"/>
<stop offset="0.977864" stop-color="white" stop-opacity="0"/>
</linearGradient>
<linearGradient id="paint13_linear_1059_21470" x1="1.26999" y1="0" x2="1.26999" y2="2.6186" gradientUnits="userSpaceOnUse">
<stop stop-color="white"/>
<stop offset="0.441384" stop-color="white" stop-opacity="0.111856"/>
<stop offset="0.977864" stop-color="white" stop-opacity="0"/>
</linearGradient>
<linearGradient id="paint14_linear_1059_21470" x1="1.26999" y1="0" x2="1.26999" y2="2.6186" gradientUnits="userSpaceOnUse">
<stop stop-color="white"/>
<stop offset="0.441384" stop-color="white" stop-opacity="0.111856"/>
<stop offset="0.977864" stop-color="white" stop-opacity="0"/>
</linearGradient>
<linearGradient id="paint15_linear_1059_21470" x1="1.51693" y1="0" x2="1.51693" y2="2.93048" gradientUnits="userSpaceOnUse">
<stop stop-color="white"/>
<stop offset="0.441384" stop-color="white" stop-opacity="0.111856"/>
<stop offset="0.977864" stop-color="white" stop-opacity="0"/>
</linearGradient>
<linearGradient id="paint16_linear_1059_21470" x1="1.96416" y1="0" x2="1.96416" y2="3.98046" gradientUnits="userSpaceOnUse">
<stop stop-color="white"/>
<stop offset="0.441384" stop-color="white" stop-opacity="0.111856"/>
<stop offset="0.977864" stop-color="white" stop-opacity="0"/>
</linearGradient>
<linearGradient id="paint17_linear_1059_21470" x1="1.82223" y1="0" x2="1.82223" y2="3.72784" gradientUnits="userSpaceOnUse">
<stop stop-color="white"/>
<stop offset="0.441384" stop-color="white" stop-opacity="0.111856"/>
<stop offset="0.977864" stop-color="white" stop-opacity="0"/>
</linearGradient>
<linearGradient id="paint18_linear_1059_21470" x1="1.26702" y1="0" x2="1.26702" y2="2.62434" gradientUnits="userSpaceOnUse">
<stop stop-color="white"/>
<stop offset="0.441384" stop-color="white" stop-opacity="0.111856"/>
<stop offset="0.977864" stop-color="white" stop-opacity="0"/>
</linearGradient>
<linearGradient id="paint19_linear_1059_21470" x1="1.04696" y1="0" x2="1.04696" y2="2.12879" gradientUnits="userSpaceOnUse">
<stop stop-color="white"/>
<stop offset="0.441384" stop-color="white" stop-opacity="0.111856"/>
<stop offset="0.977864" stop-color="white" stop-opacity="0"/>
</linearGradient>
<linearGradient id="paint20_linear_1059_21470" x1="1.05245" y1="0" x2="1.05245" y2="2.05056" gradientUnits="userSpaceOnUse">
<stop stop-color="white"/>
<stop offset="0.441384" stop-color="white" stop-opacity="0.111856"/>
<stop offset="0.977864" stop-color="white" stop-opacity="0"/>
</linearGradient>
<linearGradient id="paint21_linear_1059_21470" x1="1.05245" y1="0" x2="1.05245" y2="2.05056" gradientUnits="userSpaceOnUse">
<stop stop-color="white"/>
<stop offset="0.441384" stop-color="white" stop-opacity="0.111856"/>
<stop offset="0.977864" stop-color="white" stop-opacity="0"/>
</linearGradient>
<linearGradient id="paint22_linear_1059_21470" x1="1.08654" y1="0" x2="1.08654" y2="2.25018" gradientUnits="userSpaceOnUse">
<stop stop-color="white"/>
<stop offset="0.441384" stop-color="white" stop-opacity="0.111856"/>
<stop offset="0.977864" stop-color="white" stop-opacity="0"/>
</linearGradient>
<linearGradient id="paint23_linear_1059_21470" x1="1.96881" y1="0" x2="1.96881" y2="3.97128" gradientUnits="userSpaceOnUse">
<stop stop-color="white"/>
<stop offset="0.441384" stop-color="white" stop-opacity="0.111856"/>
<stop offset="0.977864" stop-color="white" stop-opacity="0"/>
</linearGradient>
<linearGradient id="paint24_linear_1059_21470" x1="1.54524" y1="0" x2="1.54524" y2="3.00826" gradientUnits="userSpaceOnUse">
<stop stop-color="white"/>
<stop offset="0.441384" stop-color="white" stop-opacity="0.111856"/>
<stop offset="0.977864" stop-color="white" stop-opacity="0"/>
</linearGradient>
<linearGradient id="paint25_linear_1059_21470" x1="1.26999" y1="0" x2="1.26999" y2="2.6186" gradientUnits="userSpaceOnUse">
<stop stop-color="white"/>
<stop offset="0.441384" stop-color="white" stop-opacity="0.111856"/>
<stop offset="0.977864" stop-color="white" stop-opacity="0"/>
</linearGradient>
<linearGradient id="paint26_linear_1059_21470" x1="1.26999" y1="0" x2="1.26999" y2="2.6186" gradientUnits="userSpaceOnUse">
<stop stop-color="white"/>
<stop offset="0.441384" stop-color="white" stop-opacity="0.111856"/>
<stop offset="0.977864" stop-color="white" stop-opacity="0"/>
</linearGradient>
<linearGradient id="paint27_linear_1059_21470" x1="1.51693" y1="0" x2="1.51693" y2="2.93048" gradientUnits="userSpaceOnUse">
<stop stop-color="white"/>
<stop offset="0.441384" stop-color="white" stop-opacity="0.111856"/>
<stop offset="0.977864" stop-color="white" stop-opacity="0"/>
</linearGradient>
<linearGradient id="paint28_linear_1059_21470" x1="1.96416" y1="0" x2="1.96416" y2="3.98046" gradientUnits="userSpaceOnUse">
<stop stop-color="white"/>
<stop offset="0.441384" stop-color="white" stop-opacity="0.111856"/>
<stop offset="0.977864" stop-color="white" stop-opacity="0"/>
</linearGradient>
<linearGradient id="paint29_linear_1059_21470" x1="1.82223" y1="0" x2="1.82223" y2="3.72784" gradientUnits="userSpaceOnUse">
<stop stop-color="white"/>
<stop offset="0.441384" stop-color="white" stop-opacity="0.111856"/>
<stop offset="0.977864" stop-color="white" stop-opacity="0"/>
</linearGradient>
<linearGradient id="paint30_linear_1059_21470" x1="1.26702" y1="0" x2="1.26702" y2="2.62434" gradientUnits="userSpaceOnUse">
<stop stop-color="white"/>
<stop offset="0.441384" stop-color="white" stop-opacity="0.111856"/>
<stop offset="0.977864" stop-color="white" stop-opacity="0"/>
</linearGradient>
<linearGradient id="paint31_linear_1059_21470" x1="1.04696" y1="0" x2="1.04696" y2="2.12879" gradientUnits="userSpaceOnUse">
<stop stop-color="white"/>
<stop offset="0.441384" stop-color="white" stop-opacity="0.111856"/>
<stop offset="0.977864" stop-color="white" stop-opacity="0"/>
</linearGradient>
<linearGradient id="paint32_linear_1059_21470" x1="1.05245" y1="0" x2="1.05245" y2="2.05056" gradientUnits="userSpaceOnUse">
<stop stop-color="white"/>
<stop offset="0.441384" stop-color="white" stop-opacity="0.111856"/>
<stop offset="0.977864" stop-color="white" stop-opacity="0"/>
</linearGradient>
<linearGradient id="paint33_linear_1059_21470" x1="1.05245" y1="0" x2="1.05245" y2="2.05056" gradientUnits="userSpaceOnUse">
<stop stop-color="white"/>
<stop offset="0.441384" stop-color="white" stop-opacity="0.111856"/>
<stop offset="0.977864" stop-color="white" stop-opacity="0"/>
</linearGradient>
<linearGradient id="paint34_linear_1059_21470" x1="1.08654" y1="0" x2="1.08654" y2="2.25018" gradientUnits="userSpaceOnUse">
<stop stop-color="white"/>
<stop offset="0.441384" stop-color="white" stop-opacity="0.111856"/>
<stop offset="0.977864" stop-color="white" stop-opacity="0"/>
</linearGradient>
</defs>
</svg>
